<?xml version="1.0" encoding="UTF-8"?>
<svg version="1.1" xmlns="http://www.w3.org/2000/svg" width="1024" height="1024">
<path d="M0 0 C337.92 0 675.84 0 1024 0 C1024 337.92 1024 675.84 1024 1024 C686.08 1024 348.16 1024 0 1024 C0 686.08 0 348.16 0 0 Z " fill="none" transform="translate(0,0)"/>
<path d="M0 0 C18.48769613 15.33014407 30.81519405 36.2387358 33.578125 60.30859375 C34.20583535 68.53793398 34.43522624 75.83147079 30.578125 83.30859375 C26.00309895 87.78195255 21.52598194 90.99275194 15.078125 91.68359375 C9.21676925 91.05559135 5.44094587 88.87202748 1.71972656 84.27539062 C-0.60786606 80.26532088 -0.87998011 75.65041889 -1.484375 71.12109375 C-1.80991174 69.04454437 -2.14185545 66.96898841 -2.48046875 64.89453125 C-2.71999268 63.4264502 -2.71999268 63.4264502 -2.96435547 61.92871094 C-5.25843319 48.79101506 -13.61109416 36.46371136 -23.90234375 28.046875 C-36.00997977 19.69354472 -50.69533606 14.89868155 -65.421875 14.30859375 C-66.36804688 14.26863281 -67.31421875 14.22867188 -68.2890625 14.1875 C-87.07656009 13.79705078 -103.9687503 17.04923741 -119.421875 28.30859375 C-120.33710938 28.96601563 -121.25234375 29.6234375 -122.1953125 30.30078125 C-137.68765385 42.14786581 -146.59024178 58.34829062 -149.796875 77.5546875 C-150.92356288 83.57542583 -154.01335098 87.2762895 -158.421875 91.30859375 C-162.56650592 93.92625538 -167.66042906 94.33401366 -172.421875 93.30859375 C-178.13985759 89.94326947 -182.8933995 84.44420631 -185.421875 78.30859375 C-187.15087934 67.4158664 -181.82645767 55.15109227 -177.421875 45.30859375 C-210.8362823 57.16743242 -238.45690566 84.1076491 -254.421875 115.30859375 C-257.515154 121.99139972 -260.04246181 128.84061704 -262.33203125 135.8359375 C-265.0134186 141.91951525 -269.68511515 145.19128514 -274.921875 148.93359375 C-286.1919991 157.20979101 -295.95097754 166.08876307 -304.421875 177.30859375 C-304.82647949 177.8382373 -305.23108398 178.36788086 -305.64794922 178.91357422 C-318.94174739 196.41886401 -326.85687143 214.826224 -331.421875 236.30859375 C-331.598396 237.06954346 -331.77491699 237.83049316 -331.95678711 238.61450195 C-336.53812265 265.15257947 -331.04777056 292.88222056 -316.421875 315.30859375 C-308.81768066 325.95446583 -299.75485924 334.70109955 -289.0859375 342.203125 C-285.1657904 345.30130577 -282.04045907 348.41493597 -281.296875 353.49609375 C-280.8650656 359.50125697 -283.80077925 363.7453577 -287.421875 368.30859375 C-291.05588553 371.8580924 -293.86238503 372.57718319 -298.796875 372.80859375 C-312.79988392 372.18581842 -324.09667344 359.61054597 -333.05908203 349.88427734 C-347.421875 333.27778042 -347.421875 333.27778042 -347.421875 327.30859375 C-348.081875 327.30859375 -348.741875 327.30859375 -349.421875 327.30859375 C-351.23476016 332.56596072 -352.91543595 337.84802575 -354.484375 343.18359375 C-354.80535156 344.27414062 -355.12632812 345.3646875 -355.45703125 346.48828125 C-362.72165597 375.25266578 -358.87096356 404.83518877 -344.171875 430.55859375 C-330.77600461 451.60924721 -311.65773874 465.40355238 -287.34667969 471.34643555 C-282.4920432 472.62880298 -279.55188183 474.15923604 -276.421875 478.30859375 C-275.0984986 483.34868686 -275.39767726 488.27821935 -277.75390625 492.94921875 C-281.28012006 497.75696851 -284.8776648 501.11002764 -290.421875 503.30859375 C-296.83035539 504.05713165 -302.30369223 502.78083456 -308.296875 500.62109375 C-309.07337402 500.35216309 -309.84987305 500.08323242 -310.64990234 499.80615234 C-316.74176105 497.6557123 -322.61802651 495.14601504 -328.421875 492.30859375 C-328.04494692 501.18394566 -326.7702499 509.21127368 -324.109375 517.68359375 C-323.58694214 519.35373535 -323.58694214 519.35373535 -323.05395508 521.05761719 C-317.33008795 538.48226855 -308.76415442 554.68580845 -296.421875 568.30859375 C-295.13216797 569.76265625 -295.13216797 569.76265625 -293.81640625 571.24609375 C-287.30141962 578.17488308 -280.04129026 583.18389781 -272.078125 588.25097656 C-269.9306538 589.62226861 -267.81669136 591.02759452 -265.734375 592.49609375 C-265.17363281 592.88152344 -264.61289062 593.26695312 -264.03515625 593.6640625 C-259.68709001 598.09635278 -257.66066342 603.98979652 -255.671875 609.74609375 C-240.30726572 652.13635168 -208.19820585 683.57478226 -169.421875 705.30859375 C-168.78685059 705.66679199 -168.15182617 706.02499023 -167.49755859 706.39404297 C-137.88692177 722.8462312 -97.70453503 732.55377709 -64.421875 723.30859375 C-59.26443969 721.60185485 -54.34657137 719.59391037 -49.421875 717.30859375 C-48.79394043 717.02387207 -48.16600586 716.73915039 -47.51904297 716.44580078 C-24.77152878 705.9456086 -7.28246133 684.44909209 1.84277344 661.35986328 C6.1134527 649.44676662 9.20115467 636.89125364 10.578125 624.30859375 C9.92585938 624.2828125 9.27359375 624.25703125 8.6015625 624.23046875 C1.31326488 623.75748188 -3.4739759 621.87641136 -8.421875 616.30859375 C-11.24006624 610.46679974 -11.84463954 604.73088121 -11.71484375 598.3359375 C-11.71059891 597.52741837 -11.70635406 596.71889923 -11.70198059 595.88587952 C-11.68537535 593.33892502 -11.64776033 590.79280335 -11.609375 588.24609375 C-11.59430458 586.50456883 -11.58062034 584.76303134 -11.56835938 583.02148438 C-11.53553184 578.78354014 -11.48387955 574.54620743 -11.421875 570.30859375 C-12.00976807 570.29924805 -12.59766113 570.28990234 -13.20336914 570.28027344 C-39.54638123 569.75623887 -62.23589321 563.61832723 -81.0703125 544.06640625 C-94.13292224 528.74713303 -98.75393691 511.23366424 -98.6875 491.5625 C-98.68885068 490.1420027 -98.69079456 488.72150586 -98.69329834 487.30101013 C-98.69623162 484.33661459 -98.6920109 481.37234032 -98.68261719 478.40795898 C-98.67123416 474.6346878 -98.6777862 470.86170161 -98.68976212 467.0884409 C-98.6970385 464.15852263 -98.6946663 461.22867033 -98.68950653 458.29874992 C-98.68818541 456.90868024 -98.68976293 455.5186043 -98.69446564 454.12854195 C-98.74492139 435.02546797 -98.74492139 435.02546797 -94.546875 428.30859375 C-91.15168648 425.11312221 -88.4690254 424.05987617 -83.82539368 424.04789734 C-82.90734451 424.04081253 -81.98929535 424.03372772 -81.04342651 424.02642822 C-80.04336578 424.02890564 -79.04330505 424.03138306 -78.01293945 424.03393555 C-76.4244091 424.02626915 -76.4244091 424.02626915 -74.80378723 424.01844788 C-71.29751962 424.0045316 -67.79144823 424.00551075 -64.28515625 424.0078125 C-61.84620592 424.00392561 -59.40725627 423.99959095 -56.9683075 423.99482727 C-51.85132659 423.98735988 -46.73441466 423.98765933 -41.61743164 423.99291992 C-35.0716661 423.99870357 -28.52618452 423.98181255 -21.98046589 423.95857525 C-16.94030617 423.94381288 -11.90021436 423.94296984 -6.86003685 423.94608498 C-4.44759752 423.94557264 -2.03515431 423.94035145 0.37726402 423.93027306 C3.75909989 423.91788308 7.14038913 423.92471708 10.5222168 423.9362793 C11.51215637 423.92863556 12.50209595 423.92099182 13.52203369 423.91311646 C20.99485846 423.96934863 27.95149181 425.02583909 34.015625 429.68359375 C38.32731923 434.10045126 38.82872862 437.86749692 38.7734375 443.921875 C38.76699219 445.16904297 38.76054687 446.41621094 38.75390625 447.70117188 C38.73714844 448.99474609 38.72039062 450.28832031 38.703125 451.62109375 C38.69410156 452.93400391 38.68507813 454.24691406 38.67578125 455.59960938 C38.65224297 458.83612288 38.6193602 462.07226524 38.578125 465.30859375 C39.74384033 465.30073853 39.74384033 465.30073853 40.93310547 465.29272461 C44.43977049 465.27199219 47.94642263 465.25894554 51.453125 465.24609375 C52.67644531 465.23771484 53.89976562 465.22933594 55.16015625 465.22070312 C56.91005859 465.21586914 56.91005859 465.21586914 58.6953125 465.2109375 C60.31348877 465.20308228 60.31348877 465.20308228 61.96435547 465.19506836 C64.578125 465.30859375 64.578125 465.30859375 66.578125 466.30859375 C66.248125 455.41859375 65.918125 444.52859375 65.578125 433.30859375 C62.45859375 432.2928125 59.3390625 431.27703125 56.125 430.23046875 C3.52440022 413.0934394 3.52440022 413.0934394 -17.51812744 405.95385742 C-19.37510549 405.32444599 -21.23319375 404.6983131 -23.09130859 404.07226562 C-51.01818245 394.60869972 -76.82668515 382.37411875 -91.421875 355.30859375 C-99.59919072 338.66846999 -99.88170894 320.84137906 -99.8203125 302.703125 C-99.8223398 300.56377565 -99.82525666 298.42442698 -99.82901001 296.28507996 C-99.83339963 291.8316684 -99.82710987 287.37843899 -99.81298828 282.92504883 C-99.79586717 277.25337443 -99.80577784 271.58212519 -99.82370567 265.91046619 C-99.83460823 261.50319788 -99.83106816 257.09602843 -99.8233223 252.68875694 C-99.82133977 250.59863928 -99.82370999 248.50851225 -99.83076096 246.41840553 C-99.89596346 221.67690171 -95.01085886 201.55126474 -77.734375 182.99609375 C-62.01976953 168.03442919 -41.07282446 163.12930242 -19.9609375 163.265625 C-18.57998901 163.27027771 -18.57998901 163.27027771 -17.17114258 163.27502441 C-14.92135376 163.28305416 -12.67163136 163.29431434 -10.421875 163.30859375 C-10.46115112 161.44726807 -10.46115112 161.44726807 -10.5012207 159.54833984 C-10.59194082 154.93036027 -10.64920361 150.31245896 -10.6965332 145.69384766 C-10.72162772 143.69761902 -10.75571126 141.70148182 -10.79907227 139.70556641 C-10.85994746 136.83082487 -10.88813524 133.95730127 -10.91015625 131.08203125 C-10.93596268 130.19430023 -10.9617691 129.30656921 -10.98835754 128.39193726 C-10.99022063 124.24590767 -10.84562629 121.24483887 -8.26635742 117.88525391 C-2.23828073 112.42475083 2.7890819 111.86943328 10.58740234 111.92041016 C11.58004593 111.9151532 12.57268951 111.90989624 13.59541321 111.90447998 C16.86845761 111.8913042 20.14101336 111.90001109 23.4140625 111.91015625 C25.69560845 111.9081345 27.97715377 111.90522223 30.25869751 111.90145874 C35.03841306 111.89703838 39.81796028 111.90345614 44.59765625 111.91748047 C50.71302417 111.93455257 56.8279965 111.92474159 62.94334984 111.90676308 C67.65492714 111.89590101 72.36641132 111.89938307 77.07799149 111.90714645 C79.33216016 111.90914276 81.58633738 111.90670926 83.84049606 111.89970779 C86.99724321 111.89205577 90.15335829 111.90375135 93.31005859 111.92041016 C94.23499619 111.91433746 95.15993378 111.90826477 96.11289978 111.90200806 C102.56884402 111.96485601 108.53413612 112.71513833 113.63671875 117.0625 C114.09175781 117.65933594 114.54679687 118.25617188 115.015625 118.87109375 C115.48871094 119.47050781 115.96179688 120.06992187 116.44921875 120.6875 C119.18111156 124.61046026 118.70403854 128.42119601 118.67578125 133.03515625 C118.67365883 134.32938004 118.67365883 134.32938004 118.67149353 135.64974976 C118.66588688 138.41106605 118.65333327 141.17230187 118.640625 143.93359375 C118.63561086 145.80338425 118.6310478 147.67317601 118.62695312 149.54296875 C118.61591529 154.13154152 118.5986462 158.72005398 118.578125 163.30859375 C119.51904495 163.29485466 119.51904495 163.29485466 120.47897339 163.28083801 C143.69232493 162.95761554 167.07116891 165.23731957 184.890625 181.99609375 C200.46695475 199.04314991 207.25025096 218.94463603 207.109375 241.80859375 C207.1120817 243.22387964 207.11597378 244.6391637 207.12097168 246.05444336 C207.12679627 248.985536 207.11852611 251.91613382 207.09960938 254.84716797 C207.07665232 258.58373661 207.09009119 262.31916604 207.11389923 266.05569458 C207.12840615 268.96413658 207.12373197 271.87231134 207.11338806 274.78076172 C207.11074299 276.15853007 207.11391129 277.53632364 207.12330627 278.9140625 C207.16530383 286.78809132 206.94865292 292.63039498 202.578125 299.30859375 C198.75591156 302.94435775 195.73299107 304.43013235 190.48394775 304.44230652 C189.6516716 304.4465715 188.81939545 304.45083649 187.9618988 304.45523071 C187.05182571 304.45477753 186.14175262 304.45432434 185.20410156 304.45385742 C184.24264725 304.45721603 183.28119293 304.46057465 182.29060364 304.46403503 C179.09997271 304.4735604 175.90939428 304.47548971 172.71875 304.4765625 C170.49452696 304.47977672 168.27030414 304.48314092 166.04608154 304.48664856 C161.37202465 304.49264571 156.69798625 304.49448813 152.02392578 304.49389648 C146.06955192 304.49379545 140.11529889 304.5073834 134.16095352 304.52466869 C129.55891388 304.53586281 124.95690262 304.53781334 120.35485077 304.53728676 C118.16228575 304.53845821 115.96971978 304.54283244 113.77716827 304.55061913 C81.22181131 304.6553052 81.22181131 304.6553052 73.578125 299.30859375 C69.80665485 295.13303751 69.44997477 291.37563517 69.48046875 285.88671875 C69.48296631 284.9627832 69.48546387 284.03884766 69.48803711 283.08691406 C69.50169312 281.34039551 69.50169312 281.34039551 69.515625 279.55859375 C69.53625 275.84609375 69.556875 272.13359375 69.578125 268.30859375 C60.008125 268.30859375 50.438125 268.30859375 40.578125 268.30859375 C40.743125 271.31984375 40.908125 274.33109375 41.078125 277.43359375 C41.51290314 285.73860474 41.67590651 293.99177594 41.578125 302.30859375 C42.67703316 302.47655205 42.67703316 302.47655205 43.79814148 302.64790344 C51.00480287 303.79279165 58.03238193 305.28695255 65.09765625 307.1015625 C66.15812668 307.37067947 67.21859711 307.63979645 68.311203 307.91706848 C70.54460149 308.48530903 72.77736856 309.0560366 75.00952148 309.62915039 C78.34234615 310.48371465 81.67779094 311.32737817 85.01367188 312.16992188 C97.61356588 315.37554573 110.08110629 318.87121034 122.4909668 322.74829102 C126.73183996 324.06817068 130.99513602 325.27489574 135.28404236 326.42848206 C151.2265404 330.8073803 168.61711395 337.59819436 180.578125 349.30859375 C181.82529297 350.42621094 181.82529297 350.42621094 183.09765625 351.56640625 C191.91120305 359.78533595 197.67098051 369.28140005 201.953125 380.43359375 C202.31132324 381.36389404 202.31132324 381.36389404 202.67675781 382.31298828 C205.88091999 391.23224437 206.878774 400.33291832 206.8527832 409.75854492 C206.85789413 410.7390683 206.86300507 411.71959167 206.86827087 412.72982788 C206.88204915 415.93713673 206.88121856 419.14422776 206.87890625 422.3515625 C206.88280049 424.60679706 206.88713665 426.86203089 206.89189148 429.11726379 C206.89932911 433.8334898 206.8990809 438.54964092 206.89379883 443.26586914 C206.88801693 449.26930919 206.90491655 455.27243944 206.9281435 461.27582836 C206.94297558 465.93194836 206.94373957 470.58799546 206.94063377 475.2441349 C206.94114254 477.45541305 206.94629548 479.66669576 206.95644569 481.87795067 C207.06116111 507.88470054 203.32226556 530.40773785 184.8125 550.09765625 C171.04546291 563.72028386 150.74881867 570.47563474 131.578125 570.43359375 C130.4025 570.43617188 129.226875 570.43875 128.015625 570.44140625 C124.77706661 570.31628013 121.76415896 569.87106503 118.578125 569.30859375 C118.6095459 571.21535889 118.6095459 571.21535889 118.64160156 573.16064453 C118.71416756 577.89050978 118.75998525 582.6203261 118.79785156 587.35058594 C118.8179292 589.39526655 118.84519725 591.43989002 118.87988281 593.484375 C118.92857019 596.42852912 118.95113244 599.37192209 118.96875 602.31640625 C118.98939514 603.22601105 119.01004028 604.13561584 119.03131104 605.07278442 C119.03332876 610.81918371 118.31140589 613.88483691 114.578125 618.30859375 C112.75390625 619.91796875 112.75390625 619.91796875 110.890625 621.05859375 C109.98763672 621.63867188 109.98763672 621.63867188 109.06640625 622.23046875 C105.37171924 623.83130645 101.51720668 624.53167962 97.578125 625.30859375 C102.52722197 650.57888216 109.92127401 673.19246655 126.578125 693.30859375 C127.28582031 694.18 127.99351562 695.05140625 128.72265625 695.94921875 C143.94707678 713.83448395 165.59981806 723.28910532 188.578125 726.30859375 C216.55567192 728.00336074 244.60848117 720.64495357 269.578125 708.30859375 C270.31047363 707.94862305 271.04282227 707.58865234 271.79736328 707.21777344 C281.6422402 702.32453864 290.75456495 696.89366443 299.578125 690.30859375 C300.13564453 689.89383789 300.69316406 689.47908203 301.26757812 689.05175781 C314.40822608 679.20738288 326.70216003 668.50057616 336.578125 655.30859375 C336.97451172 654.78716797 337.37089844 654.26574219 337.77929688 653.72851562 C348.64352041 639.37282555 356.24137071 624.57809758 362.59741211 607.7121582 C365.85076772 599.29482335 369.04598922 592.4513807 377.578125 588.55859375 C403.40766931 575.39681775 420.58144318 549.28373098 429.73242188 522.45727539 C432.98143385 512.33746061 434.85469842 501.910535 435.578125 491.30859375 C434.63453125 491.7675 433.6909375 492.22640625 432.71875 492.69921875 C409.03260099 504.08780461 409.03260099 504.08780461 396.578125 502.30859375 C391.07640935 499.86338679 387.73688943 495.31940248 384.578125 490.30859375 C383.32826336 486.55900883 382.96585507 483.19613894 383.578125 479.30859375 C387.26286312 472.70147711 392.66087265 471.51849978 399.578125 469.30859375 C425.94073476 460.32664264 444.54483768 445.63044462 456.92724609 420.45288086 C468.89447702 394.62040737 468.94692026 363.92071512 459.85058594 337.16894531 C458.60518946 333.79197228 457.20135527 330.52051748 455.578125 327.30859375 C455.10503906 328.04722656 454.63195312 328.78585937 454.14453125 329.546875 C443.46477011 345.93083604 429.03451694 365.82312977 409.578125 372.30859375 C405.67875004 372.90559108 402.13343424 373.13020935 398.57421875 371.25 C393.08289003 366.87354147 390.0341896 361.61506209 389.078125 354.68359375 C390.19758975 347.12720669 394.95362551 344.12263828 400.66796875 339.6875 C420.65731186 323.34721818 436.35355562 300.37893301 439.578125 274.30859375 C441.23684924 235.03596758 430.95066511 198.35348723 404.078125 169.05859375 C402.26001089 167.12659118 400.42050772 165.21772947 398.578125 163.30859375 C397.81242188 162.47972656 397.04671875 161.65085937 396.2578125 160.796875 C390.55826325 154.79785791 384.30262261 149.88072952 377.55419922 145.12524414 C370.88905367 140.27486595 366.96504294 134.80647718 364.765625 126.80859375 C360.48282545 113.2606143 353.3030341 101.43003056 344.578125 90.30859375 C344.14097168 89.75042969 343.70381836 89.19226563 343.25341797 88.6171875 C327.1535489 68.32016793 306.66516039 54.67451886 283.578125 43.30859375 C283.90425781 44.19160156 284.23039063 45.07460937 284.56640625 45.984375 C294.28400694 72.67194504 294.28400694 72.67194504 290.62890625 81.63671875 C287.30906308 87.2919721 282.99472893 91.47527834 276.578125 93.30859375 C270.64531116 94.22133434 267.45784667 92.40723459 262.69140625 89.20703125 C257.36936666 84.42604929 255.86577858 79.43301125 254.640625 72.68359375 C252.20492312 60.73642155 248.19411257 50.93285391 240.578125 41.30859375 C239.93230469 40.47457031 239.28648437 39.64054687 238.62109375 38.78125 C226.51390342 24.2032045 208.23988019 16.07631397 189.578125 14.30859375 C166.34975696 12.77892073 145.31752192 15.95975932 127.11328125 31.8046875 C115.0525212 43.71677871 110.40641857 56.44314692 108.74072266 72.97436523 C108.13309765 78.41805423 107.20521522 81.97623598 103.578125 86.30859375 C99.11224535 89.63611192 95.52516235 91.09259725 89.91796875 90.82421875 C84.27102749 89.57981767 80.16544483 86.04629125 76.3515625 81.87109375 C73.72919229 76.60324875 73.9400345 71.74243271 74.015625 65.93359375 C74.02513184 64.7719873 74.03463867 63.61038086 74.04443359 62.41357422 C74.27415294 52.86495106 75.76350106 45.07219033 79.578125 36.30859375 C80.04734375 35.21417969 80.5165625 34.11976563 81 32.9921875 C84.07001362 26.39826039 87.83860106 20.80411538 92.578125 15.30859375 C93.28066406 14.48488281 93.98320313 13.66117188 94.70703125 12.8125 C112.93204288 -8.01155677 138.56285719 -21.54064068 166.34130859 -23.56689453 C193.61050841 -25.08482641 220.60257047 -21.3027664 243.95288086 -6.15039062 C246.87428118 -4.5268169 249.35358358 -3.90057207 252.62890625 -3.26171875 C253.79437988 -3.02662598 254.95985352 -2.7915332 256.16064453 -2.54931641 C257.39153809 -2.30745605 258.62243164 -2.0655957 259.890625 -1.81640625 C294.42515258 5.31759008 323.93430462 20.08762913 350.578125 43.30859375 C351.0932666 43.7567041 351.6084082 44.20481445 352.13916016 44.66650391 C364.14690753 55.192429 373.8378254 66.90372211 382.578125 80.30859375 C382.9479248 80.86853027 383.31772461 81.4284668 383.69873047 82.00537109 C388.18429483 88.86507364 391.77755327 95.61556174 394.6965332 103.28735352 C398.46429298 113.05393065 401.90385635 118.4711612 410.49609375 124.33203125 C437.30752634 142.92824303 456.0444207 174.05730884 466.578125 204.30859375 C466.83174805 205.03498047 467.08537109 205.76136719 467.34667969 206.50976562 C475.65080015 230.91782819 476.32102643 256.71995981 473.5378418 282.20483398 C473.61048894 287.80218615 476.56912793 291.77153776 479.578125 296.30859375 C498.88306601 329.5861647 505.92009869 367.48927224 497.578125 405.30859375 C497.3613208 406.30439453 497.3613208 406.30439453 497.14013672 407.3203125 C494.26929433 420.06265614 489.38333922 431.88481099 483.640625 443.55859375 C483.34124023 444.1714624 483.04185547 444.78433105 482.73339844 445.41577148 C481.24726869 448.35729687 479.7880181 451.03502266 477.77392578 453.66015625 C472.16127858 461.20981146 471.7839038 467.55986884 472.22390747 476.58126831 C472.40142945 480.37524838 472.44153815 484.17134794 472.49609375 487.96875 C472.50914047 488.70734756 472.52218719 489.44594513 472.53562927 490.20692444 C473.07425511 526.30403236 453.99579625 567.01447192 429.1328125 592.72265625 C428.28976562 593.57601562 427.44671875 594.429375 426.578125 595.30859375 C425.90007813 596.05882812 425.22203125 596.8090625 424.5234375 597.58203125 C420.3350532 602.09635985 415.86718848 605.52955318 410.78271484 608.95458984 C402.07380947 614.86735969 397.51110657 618.93616108 394.578125 629.30859375 C393.57430133 631.94809659 392.46165478 634.5349964 391.328125 637.12109375 C391.03228516 637.79889893 390.73644531 638.4767041 390.43164062 639.17504883 C382.18801171 657.6291385 369.60921332 673.89254653 355.578125 688.30859375 C354.99627441 688.9109082 354.41442383 689.51322266 353.81494141 690.13378906 C346.13824685 698.05256859 338.39755461 705.65156601 329.578125 712.30859375 C328.94600098 712.79005859 328.31387695 713.27152344 327.66259766 713.76757812 C295.65106643 738.01670451 259.53866718 755.03011788 219.578125 760.30859375 C218.89943359 760.40954346 218.22074219 760.51049316 217.52148438 760.61450195 C184.42783162 765.3258685 149.17706862 757.74804308 121.828125 738.43359375 C120.06319708 737.07780821 118.31376647 735.7016744 116.578125 734.30859375 C116.06830078 733.90946777 115.55847656 733.5103418 115.03320312 733.09912109 C87.9935437 711.84555926 70.86423651 679.36189186 66.1796875 645.421875 C65.46652992 638.6661525 65.578125 632.15014369 65.578125 625.30859375 C57.658125 625.30859375 49.738125 625.30859375 41.578125 625.30859375 C41.6709375 628.43328125 41.6709375 628.43328125 41.765625 631.62109375 C41.96017797 666.03789552 26.81397322 698.95738064 3.3046875 723.5703125 C-11.6644685 738.60380585 -30.97370916 747.53934232 -50.421875 755.30859375 C-51.59878906 755.78425781 -52.77570313 756.25992188 -53.98828125 756.75 C-89.31689014 769.77592246 -133.1771958 759.7776391 -166.421875 745.30859375 C-167.15647949 744.99019531 -167.89108398 744.67179688 -168.64794922 744.34375 C-195.87622581 732.39380298 -219.87274336 715.70062916 -241.421875 695.30859375 C-242.81599609 693.99568359 -242.81599609 693.99568359 -244.23828125 692.65625 C-251.38114849 685.73691487 -257.51456034 678.29241902 -263.421875 670.30859375 C-263.82148438 669.76976562 -264.22109375 669.2309375 -264.6328125 668.67578125 C-274.82820344 654.78541642 -283.66549155 639.32982779 -289.234375 622.99609375 C-291.51869481 617.19167456 -295.59813611 614.066967 -300.421875 610.30859375 C-336.49676945 581.14625392 -359.09591103 543.00425275 -364.78759766 496.30810547 C-365.29036889 491.25982146 -365.44859697 486.40088901 -365.1328125 481.3359375 C-364.2150026 466.31290286 -366.72415321 457.99077755 -374.98535156 445.63867188 C-393.59006333 415.46134878 -396.43462019 373.18777691 -389.421875 339.30859375 C-385.45962446 322.72369914 -378.72949368 303.59655683 -367.76953125 290.3046875 C-364.74289978 285.82176378 -366.39851985 279.35165121 -366.921875 274.2109375 C-370.82219971 231.79313342 -359.57423822 186.7276437 -332.421875 153.30859375 C-328.60241842 148.80158179 -324.53596831 144.54511513 -320.421875 140.30859375 C-319.8969043 139.7578418 -319.37193359 139.20708984 -318.83105469 138.63964844 C-312.03836919 131.51621745 -305.07631599 125.21089632 -297.1015625 119.4296875 C-292.30667972 115.6343211 -290.72403936 111.73927075 -288.796875 106.05859375 C-273.48706022 63.32975615 -234.87877453 31.92788929 -195.24902344 12.63427734 C-180.43687133 5.6886827 -165.33937508 1.44231375 -149.45159912 -2.11157227 C-138.01259548 -4.69990993 -128.51117401 -8.69002343 -118.39501953 -14.61523438 C-82.96662152 -33.93822107 -30.67991504 -24.24952881 0 0 Z " fill="#545654" transform="translate(458.421875,144.69140625)"/>
<path d="M0 0 C0.02187378 1.86918091 0.02187378 1.86918091 0.04418945 3.77612305 C0.102243 8.40759712 0.17947576 13.03858862 0.26245117 17.66967773 C0.29566727 19.67252764 0.32370952 21.6754704 0.34643555 23.6784668 C0.38004234 26.56078594 0.43236148 29.44225668 0.48828125 32.32421875 C0.49786613 33.66355721 0.49786613 33.66355721 0.50764465 35.029953 C0.62269931 39.91537112 1.04015744 42.92670926 4 47 C4 47.66 4 48.32 4 49 C9.02234179 51.71853983 14.13104612 51.21733781 19.671875 51.125 C20.70886536 51.11742676 21.74585571 51.10985352 22.81427002 51.10205078 C27.23900886 51.06945908 31.66337422 51.01335234 36.08789062 50.95898438 C39.32420108 50.92262134 42.56044987 50.89854902 45.796875 50.875 C46.78467957 50.85840332 47.77248413 50.84180664 48.79022217 50.82470703 C60.36903151 50.7436897 69.55409228 53.09772305 78.26953125 61.078125 C85.88618354 69.16110294 88.63340538 76.6936173 88.390625 87.72265625 C88.38496521 88.70874374 88.37930542 89.69483124 88.37347412 90.71080017 C88.35126734 93.82854899 88.30110089 96.94510461 88.25 100.0625 C88.2299147 102.18943641 88.2116675 104.31639101 88.1953125 106.44335938 C88.15145409 111.62935878 88.08253662 116.81447782 88 122 C39.22856724 122.20638953 39.22856724 122.20638953 19 121 C18.97812622 119.85785034 18.97812622 119.85785034 18.95581055 118.69262695 C18.88119459 115.23208112 18.78457741 111.77248555 18.6875 108.3125 C18.66494141 107.11431641 18.64238281 105.91613281 18.61914062 104.68164062 C18.58369141 103.52470703 18.54824219 102.36777344 18.51171875 101.17578125 C18.48553467 100.11270752 18.45935059 99.04963379 18.43237305 97.9543457 C17.90428515 94.34599358 17.4374379 92.75302824 15 90 C7.18341347 85.09993874 -1.43127449 85.42636026 -10.3515625 85.50390625 C-11.82026236 85.5037509 -13.28896263 85.50225596 -14.75765991 85.49949646 C-17.81877009 85.49812026 -20.87940727 85.51054115 -23.94042969 85.53344727 C-27.84516913 85.56188058 -31.74912719 85.55907064 -35.65392494 85.54635715 C-38.68074104 85.53937268 -41.70737943 85.5472198 -44.73417282 85.55961418 C-46.17333671 85.56409831 -47.61251987 85.56449235 -49.05168533 85.56054878 C-61.1249475 85.16999367 -61.1249475 85.16999367 -71.54238892 90.45167542 C-75.46858421 94.98494303 -76.12776435 97.58558927 -76.16113281 103.46582031 C-76.16609772 104.12947098 -76.17106262 104.79312164 -76.17617798 105.47688293 C-76.19080823 107.67730745 -76.19760416 109.87765979 -76.203125 112.078125 C-76.20887721 113.60788983 -76.21463493 115.13765464 -76.22039795 116.66741943 C-76.23091139 119.87870622 -76.23675132 123.08996795 -76.24023438 126.30126953 C-76.24570977 130.4081213 -76.2697156 134.51463997 -76.29820633 138.62138748 C-76.31687178 141.7836197 -76.32204045 144.94577247 -76.32357025 148.10805511 C-76.32659018 149.6214657 -76.33459643 151.13487511 -76.34775543 152.64823151 C-76.36489294 154.7712753 -76.36291711 156.89351584 -76.35644531 159.01660156 C-76.36009094 160.22302307 -76.36373657 161.42944458 -76.36749268 162.67242432 C-75.68382083 168.8629417 -72.67603767 173.34858348 -67.9140625 177.17700195 C-64.31636717 179.42767145 -60.79657773 180.55700248 -56.75 181.76171875 C-55.51358765 182.14084663 -55.51358765 182.14084663 -54.25219727 182.52763367 C-51.50511749 183.36449356 -48.75355557 184.18470965 -46 185 C-45.03884277 185.28466125 -44.07768555 185.56932251 -43.08740234 185.86260986 C-36.83413468 187.70815322 -30.57412117 189.53016965 -24.31298828 191.34881592 C-6.43285049 196.54980147 11.35524679 201.85984575 28.95019531 207.96289062 C32.33736321 209.11472294 35.74018206 210.20907575 39.1484375 211.296875 C74.70534021 222.69435797 74.70534021 222.69435797 82.58984375 236.85546875 C88.63104375 250.3912589 88.31197554 264.15927585 88.30078125 278.6875 C88.30467503 280.79777103 88.30901109 282.90804128 88.31376648 285.01831055 C88.32119841 289.42596995 88.32095891 293.83354919 88.31567383 298.24121094 C88.30987524 303.8662522 88.32683459 309.49096461 88.3500185 315.11595154 C88.36480571 319.46905407 88.3656209 323.82207822 88.36250877 328.17520142 C88.36301921 330.24826714 88.36820434 332.32133756 88.37832069 334.39437866 C88.43985336 348.76181395 88.43196779 362.24014229 79 374 C66.77674801 385.94857217 49.48210486 385.5556169 33.5625 385.5 C30.04243227 385.48787394 26.52384495 385.50174277 23.00390625 385.53125 C21.82399864 385.51427063 21.82399864 385.51427063 20.62025452 385.49694824 C13.33038078 385.56296016 8.4845903 387.80456372 3.04418945 392.61181641 C0.2570569 397.23140622 0.27058467 400.90909213 0.29296875 406.2109375 C0.27028679 407.66314194 0.27028679 407.66314194 0.24714661 409.14468384 C0.20433055 412.22169395 0.19543733 415.29772189 0.1875 418.375 C0.16435102 420.46747392 0.13898485 422.55992456 0.11132812 424.65234375 C0.04853562 429.76831577 0.01615281 434.88367673 0 440 C-13.59850319 440.80778679 -27.1292509 441.13084877 -40.75 441.0625 C-42.53775913 441.05746269 -44.32551967 441.05290382 -46.11328125 441.04882812 C-50.40889043 441.03802735 -54.70442855 441.02089286 -59 441 C-59.01458252 439.69853027 -59.02916504 438.39706055 -59.04418945 437.05615234 C-59.10228934 432.21408008 -59.17952191 427.37246715 -59.26245117 422.53076172 C-59.29564549 420.43773876 -59.32369445 418.34462747 -59.34643555 416.25146484 C-59.38008231 413.23757388 -59.43240393 410.22448837 -59.48828125 407.2109375 C-59.49467117 406.27945892 -59.5010611 405.34798035 -59.50764465 404.38827515 C-59.62416852 399.20520101 -60.06270695 395.45739105 -63 391 C-67.75294747 387.25831795 -71.42642262 385.8776935 -77.37866211 385.87402344 C-78.23733383 385.87021667 -79.09600555 385.86640991 -79.98069763 385.86248779 C-80.90359085 385.86146057 -81.82648407 385.86043335 -82.77734375 385.859375 C-84.75587073 385.8410301 -86.73438664 385.82145826 -88.71289062 385.80078125 C-91.81309512 385.77197847 -94.91259306 385.75000395 -98.01293945 385.74951172 C-126.30094964 385.71774528 -126.30094964 385.71774528 -137.2890625 375.0078125 C-145.41489596 365.47201707 -148.50926774 354.98086028 -148.29296875 342.6171875 C-148.28994751 341.78195557 -148.28692627 340.94672363 -148.28381348 340.08618164 C-148.26831425 337.01565904 -148.22643307 333.94531489 -148.1875 330.875 C-148.125625 323.98625 -148.06375 317.0975 -148 310 C-124.57 310 -101.14 310 -77 310 C-76.505 325.345 -76.505 325.345 -76 341 C-72.48128231 346.86452948 -70.45308849 348.33566594 -64 350 C-58.58322751 350.55271173 -53.20189967 350.54012717 -47.765625 350.49609375 C-46.19862806 350.49624898 -44.63163074 350.49774192 -43.06463623 350.50050354 C-39.79665956 350.5018813 -36.52912514 350.48942938 -33.26123047 350.46655273 C-29.07929532 350.43807503 -24.89808868 350.4409391 -20.71609879 350.45364285 C-17.48695681 350.46060403 -14.25798255 350.45280736 -11.028862 350.44038582 C-9.48673903 350.43588221 -7.944598 350.43552496 -6.40247345 350.43945122 C-4.24873501 350.44237031 -2.09599485 350.42582834 0.05761719 350.40405273 C1.28067566 350.39864975 2.50373413 350.39324677 3.76385498 350.38768005 C7.27077535 349.96756196 9.10533833 348.94828655 12 347 C12.66 347 13.32 347 14 347 C16.14747442 341.70289642 17.13308169 337.71634773 17.17700195 331.96166992 C17.18685875 330.8928231 17.18685875 330.8928231 17.19691467 329.80238342 C17.21661934 327.44507742 17.22830375 325.08783504 17.23828125 322.73046875 C17.24235678 321.92429926 17.2464323 321.11812977 17.25063133 320.2875309 C17.27147976 316.02071006 17.28578691 311.75392128 17.29516602 307.48706055 C17.30622946 303.08533141 17.34063174 298.68410792 17.38033772 294.28255749 C17.4065103 290.89300104 17.41485838 287.503565 17.41844749 284.1139164 C17.42331162 282.49163713 17.43492074 280.86936318 17.45348549 279.24718285 C17.47789238 276.97322113 17.47690987 274.70056687 17.4699707 272.42651367 C17.47583694 271.13428391 17.48170319 269.84205414 17.48774719 268.51066589 C16.91396979 264.38077894 15.59575155 262.22350162 13 259 C10.87848339 257.65666517 10.87848339 257.65666517 8.40234375 257 C7.42765137 256.68675781 6.45295898 256.37351562 5.44873047 256.05078125 C4.31064941 255.70402344 3.17256836 255.35726562 2 255 C0.64490211 254.55933965 -0.70903934 254.11511255 -2.06201172 253.66796875 C-5.990857 252.37174736 -9.9265288 251.09778795 -13.8644104 249.82931519 C-18.32029433 248.39316924 -22.77348518 246.9487273 -27.2265625 245.50390625 C-28.13281876 245.20988419 -29.03907501 244.91586212 -29.97279358 244.6129303 C-43.18444692 240.32169115 -56.36266075 235.93156294 -69.52832031 231.50146484 C-72.58043314 230.47510474 -75.6346083 229.45520565 -78.69042969 228.43994141 C-133.54229696 210.2070621 -133.54229696 210.2070621 -143.1796875 192.87890625 C-149.19069539 180.57169667 -148.42982734 166.70851206 -148.625 153.34765625 C-148.64168732 152.31359587 -148.65837463 151.27953548 -148.67556763 150.21413994 C-148.76337297 144.74743693 -148.84018907 139.28071048 -148.90771484 133.8137207 C-148.9791942 128.19715142 -149.08792095 122.58195154 -149.20526123 116.96617985 C-149.28935294 112.6175374 -149.34581002 108.26884054 -149.3949585 103.91967583 C-149.42304709 101.85006774 -149.46129752 99.78056958 -149.51031494 97.71135139 C-149.85089346 82.76530171 -148.64513173 72.05285432 -137.9140625 60.68359375 C-127.06143777 51.13771363 -112.92988038 50.92608462 -99.1953125 50.75390625 C-97.37759844 50.72101818 -95.55989022 50.68780583 -93.7421875 50.65429688 C-90.91800305 50.60666776 -88.09385042 50.56207121 -85.26953125 50.52319336 C-82.51540752 50.48354347 -79.76170429 50.43204921 -77.0078125 50.37890625 C-76.16300323 50.3704921 -75.31819397 50.36207794 -74.44778442 50.35340881 C-73.26537674 50.32844582 -73.26537674 50.32844582 -72.05908203 50.30297852 C-71.02510788 50.28751732 -71.02510788 50.28751732 -69.97024536 50.27174377 C-66.8241551 49.83782297 -64.71049006 48.91822294 -62.74810791 46.38208008 C-60.03673983 41.0215492 -59.45780778 36.6472711 -59.609375 30.6875 C-59.61786469 29.40601074 -59.61786469 29.40601074 -59.62652588 28.09863281 C-59.6487261 25.39849247 -59.6988888 22.69973193 -59.75 20 C-59.77008626 18.15757139 -59.78833329 16.31512176 -59.8046875 14.47265625 C-59.84853682 9.98124785 -59.91744748 5.49085698 -60 1 C-40.00625129 -0.26520867 -20.02415992 -0.09786979 0 0 Z " fill="none" transform="translate(542,293)"/>
<path d="M0 0 C5.79856515 3.66460379 9.84538075 8.48261132 12 15 C12.91058648 19.85646124 11.44981996 22.79580805 8.80859375 26.75390625 C6.64439814 29.44162218 4.24525474 31.74173426 1.75 34.125 C-13.67533272 48.93790609 -20.80764005 68.75369628 -21.4375 89.875 C-20.78515468 118.83345946 -6.36257846 144.30840312 13.89453125 164.22265625 C20.42287946 170.24503067 27.88449746 175.313019 35.30859375 180.16015625 C39.26646059 182.86575173 42.39075827 186.44048177 44 191 C44.68643449 196.94909889 43.28205107 201.1298597 40 206 C35.57703464 210.20721095 31.79892799 211.50389856 25.64453125 211.39453125 C5.69591792 208.41844566 -15.43746251 184.35637725 -27 169 C-47.59820801 140.49343509 -58.5406833 106.88209238 -54.3125 71.6875 C-50.48119062 49.30736864 -39.87568172 27.42919471 -23 12 C-22.21625 11.154375 -21.4325 10.30875 -20.625 9.4375 C-14.89249549 4.1144601 -8.17633102 -1.23416317 0 0 Z " fill="#545553" transform="translate(245,306)"/>
<path d="M0 0 C15.12252931 3.11502805 27.14642544 19.2005518 35.21875 31.45703125 C50.43876427 55.34948872 54.71075998 83.29425645 49.05493164 110.89941406 C40.60587469 148.71866266 17.20742177 183.0119009 -15.08251953 204.38378906 C-21.71144007 208.5718797 -27.88147969 211.62257113 -35.78125 210.45703125 C-41.07481632 208.63099369 -44.70717603 206.25258665 -47.78125 201.45703125 C-49.36480089 196.70637858 -49.71482369 192.08627959 -48.015625 187.30078125 C-44.70718776 181.24307925 -39.70777499 178.6331718 -33.78125 175.45703125 C-10.23911659 162.77770323 5.88529389 138.46953335 13.59375 113.33203125 C19.59586026 90.1203305 18.23028207 69.13179734 6.33056641 48.27148438 C1.90411984 41.04764799 -3.99434099 34.97084715 -10.15234375 29.2109375 C-14.16471031 24.89066751 -14.15240394 20.89760035 -14.03125 15.2109375 C-13.55876788 10.00625164 -11.73038926 6.73158968 -8.59375 2.51953125 C-5.59896467 0.32335534 -3.71813538 -0.29828325 0 0 Z " fill="#535553" transform="translate(783.78125,306.54296875)"/>
<path d="M0 0 C3.25848042 2.34423052 5.49130512 4.32289518 7.734375 7.6875 C8.62136855 13.4942136 8.06743678 18.85491797 5.09375 23.95703125 C1.74977274 28.21387587 -3.10447818 30.13936454 -7.88671875 32.41796875 C-35.86279032 45.81568376 -55.69982514 68.77025594 -66.140625 98.0625 C-66.89589201 100.60245489 -67.60417977 103.12447751 -68.265625 105.6875 C-68.45882324 106.39374512 -68.65202148 107.09999023 -68.85107422 107.82763672 C-74.97764763 130.99858742 -73.91003873 156.63892132 -69.140625 179.94921875 C-67.80788517 186.58929474 -67.42260927 191.86099227 -71.265625 197.6875 C-73.95844328 200.95628218 -76.48222713 203.25181648 -80.6640625 204.2734375 C-86.43270175 204.64618034 -90.167463 203.27738843 -94.515625 199.5078125 C-107.90379628 185.58172362 -106.66856484 160.98195992 -106.578125 142.8125 C-106.57489227 141.63311356 -106.57489227 141.63311356 -106.57159424 140.42990112 C-106.51978847 128.62193007 -106.10954446 117.20115778 -103.265625 105.6875 C-102.96760986 104.44371582 -102.96760986 104.44371582 -102.66357422 103.17480469 C-96.45068599 77.90440538 -84.98312967 55.58773523 -68.265625 35.6875 C-67.57726562 34.84574219 -66.88890625 34.00398438 -66.1796875 33.13671875 C-61.15531668 27.19975813 -55.41123571 22.42791598 -49.265625 17.6875 C-48.41226563 17.006875 -47.55890625 16.32625 -46.6796875 15.625 C-35.79893005 7.26021349 -13.7672846 -7.97553039 0 0 Z " fill="#545553" transform="translate(384.265625,236.3125)"/>
<path d="M0 0 C17.2995238 7.66383134 31.03101996 19.23973604 44.32421875 32.47265625 C44.86771973 33.01212891 45.4112207 33.55160156 45.97119141 34.10742188 C53.00752028 41.18195503 58.52183125 48.71768645 63.32421875 57.47265625 C63.65518555 58.07561523 63.98615234 58.67857422 64.32714844 59.29980469 C76.55782772 81.87681937 84.45272953 107.20805962 84.4921875 133.03125 C84.4971801 134.21328758 84.4971801 134.21328758 84.50227356 135.41920471 C84.50730081 137.07886174 84.5096832 138.73852873 84.50952148 140.39819336 C84.51168631 142.87306499 84.52982733 145.34747378 84.54882812 147.82226562 C84.68732685 187.12042118 84.68732685 187.12042118 75.05859375 197.03515625 C70.94766063 200.44241613 67.02783435 202.20366431 61.76171875 203.03515625 C55.75100333 202.05158464 52.56734036 199.0664019 48.88671875 194.34765625 C45.39763635 187.324374 47.24126699 179.58346327 48.82421875 172.265625 C50.65466898 163.08233562 50.8352448 154.06023179 50.76171875 144.72265625 C50.75834503 143.88815948 50.75497131 143.05366272 50.75149536 142.19387817 C50.6775859 129.55929067 50.00049875 117.63486392 46.32421875 105.47265625 C46.07752441 104.61478516 45.83083008 103.75691406 45.57666016 102.87304688 C40.43716759 85.24291522 33.16204501 70.51286879 21.32421875 56.47265625 C20.77507813 55.82039063 20.2259375 55.168125 19.66015625 54.49609375 C10.43381361 44.51271787 -1.8727326 37.47563923 -13.79760742 31.26464844 C-26.70728577 24.4829738 -26.70728577 24.4829738 -28.67578125 18.47265625 C-29.50662701 13.73757069 -29.75359698 9.32553049 -27.28515625 5.08203125 C-18.57756208 -5.13992713 -11.83120215 -4.84310327 0 0 Z " fill="#545553" transform="translate(661.67578125,237.52734375)"/>
<path d="M0 0 C4.1731081 3.72751955 7.89922699 7.84070106 11.5625 12.0625 C12.70746022 13.37576173 13.85325622 14.68829539 15 16 C15.48339844 16.56332031 15.96679688 17.12664063 16.46484375 17.70703125 C26.39017836 28.4910462 40.55879586 35.62290835 54 41 C54.67272949 41.27247559 55.34545898 41.54495117 56.03857422 41.82568359 C71.50923541 47.79780009 92.21072145 49.26309285 108 44 C112.84752615 43.35696082 117.71551969 42.90794614 122.22265625 45.0625 C126.57694664 48.46457827 129.02775469 52.57328384 130 58 C130.45927582 63.24492987 129.4052748 67.0819201 126.25 71.3125 C119.76878451 78.04867014 108.86232942 79.670528 99.85058594 80.17700195 C84.44777989 80.45739826 69.84268278 80.58332331 55 76 C53.7625 75.649375 52.525 75.29875 51.25 74.9375 C22.49311058 66.1642117 -7.56549273 47.67693897 -22.90625 21.12890625 C-25.57590123 15.93262083 -25.71944157 10.72283069 -25 5 C-23.31207675 1.30403012 -20.83599637 -0.59129067 -17.1875 -2.375 C-10.68551624 -3.64989878 -5.70101072 -3.80067381 0 0 Z " fill="#535553" transform="translate(241,684)"/>
<path d="M0 0 C1.54296875 0.9921875 1.54296875 0.9921875 3.85546875 3.2421875 C4.47421875 3.8403125 5.09296875 4.4384375 5.73046875 5.0546875 C7.39439299 8.29009574 7.613151 10.75434442 6.85546875 14.2421875 C-0.33023162 32.90395146 -15.8100572 46.53621897 -32.14453125 57.2421875 C-32.73218262 57.63148438 -33.31983398 58.02078125 -33.92529297 58.421875 C-48.77663636 68.14601745 -64.7814715 74.65571942 -82.14453125 78.2421875 C-83.12808594 78.45488281 -84.11164062 78.66757812 -85.125 78.88671875 C-92.08737594 80.28321263 -99.05844649 80.88870531 -106.14453125 81.2421875 C-107.23507812 81.30792969 -108.325625 81.37367188 -109.44921875 81.44140625 C-116.39470028 81.67399166 -122.86675574 80.96376406 -129.64453125 79.5546875 C-130.77507935 79.33196167 -130.77507935 79.33196167 -131.9284668 79.10473633 C-138.25822065 77.658279 -142.1271536 74.99927029 -146.01953125 69.6796875 C-148.11651265 63.27224433 -148.39266496 56.78303113 -145.39453125 50.6796875 C-141.59639644 46.56504145 -138.75731694 44.39895464 -133.01953125 44.0546875 C-130.03983706 44.19886625 -128.00320754 44.48207388 -125.20703125 45.2265625 C-108.46340277 49.04465597 -90.16450024 46.93141699 -74.14453125 41.2421875 C-73.4700293 41.01225098 -72.79552734 40.78231445 -72.10058594 40.54541016 C-51.93423295 33.57158324 -34.16287896 20.4678743 -21.75 3.08984375 C-16.79993627 -2.60694492 -6.70539086 -2.36948238 0 0 Z " fill="#545553" transform="translate(801.14453125,683.7578125)"/>
<path d="M0 0 C4.45177707 1.61256321 7.15064233 3.88521806 10 7.625 C12.4923456 16.03666641 11.47210608 22.53787018 7.39599609 30.31005859 C0.02582548 43.43342047 -9.46886994 55.2969969 -20 66 C-20.53351074 66.55397461 -21.06702148 67.10794922 -21.61669922 67.67871094 C-39.01014485 85.50589618 -66.94824523 102.23581543 -92.4375 103.375 C-97.50209267 102.84188498 -99.78105492 101.32342609 -103.1875 97.625 C-106.54018021 92.76939417 -107.70480322 88.9404843 -107 83 C-104.42116009 77.30950202 -100.85309969 72.53669791 -94.88745117 70.1574707 C-92.33279541 69.31041018 -89.76504395 68.52453633 -87.1875 67.75 C-59.98464937 59.08481305 -37.26749663 42.46573528 -23.86279297 16.82470703 C-22.42873814 13.96474897 -21.01313039 11.10166609 -19.6862793 8.19018555 C-15.36841195 -1.07178679 -9.57370509 -1.21099372 0 0 Z " fill="#535553" transform="translate(818,544)"/>
<path d="M0 0 C4.96341596 2.63187595 6.61314834 6.50694728 8.85546875 11.46875 C22.57749936 39.45691494 45.47405787 56.49287116 74.54296875 66.71875 C75.49550537 67.03980713 76.44804199 67.36086426 77.42944336 67.69165039 C83.77710197 69.87911469 88.43345195 71.70394344 91.79296875 77.84375 C93.5703372 83.36294677 93.70254526 87.41573195 91.35546875 92.71875 C89.15196469 96.63186929 87.20807134 98.71942032 82.98046875 100.53125 C63.29829589 104.25843888 40.11296265 90.565537 24.36328125 79.94921875 C5.79363917 66.96334253 -8.42406703 50.42527404 -19.01953125 30.53125 C-19.46425781 29.69980469 -19.90898437 28.86835937 -20.3671875 28.01171875 C-23.52335 21.91432954 -25.02112812 16.39612744 -24.01953125 9.53125 C-22.33648412 5.49473032 -20.0473389 2.47095985 -16.83203125 -0.46875 C-11.07849279 -2.51445256 -5.62985996 -2.32752762 0 0 Z " fill="#535553" transform="translate(219.01953125,545.46875)"/>
<path d="M0 0 C3.5320501 2.00270882 6.17605274 4.35210549 8 8 C9.04048626 15.72932649 7.38155818 21.60118978 3 28 C-10.6127186 44.77030797 -40.14737693 51.66686172 -60.53491211 53.80151367 C-65.02200334 54.16280962 -69.50021308 54.2251393 -74 54.25 C-74.93328125 54.270625 -75.8665625 54.29125 -76.828125 54.3125 C-86.37193817 54.36581739 -93.41436068 52.39848031 -100.40234375 45.7578125 C-103.36000222 42.50366504 -103.87184398 39.97032416 -104.4375 35.6875 C-103.87192359 30.92049887 -102.01547214 27.69501516 -99 24 C-95.64186761 21.76124507 -94.41277829 21.73050614 -90.4765625 21.65625 C-88.83095337 21.61419434 -88.83095337 21.61419434 -87.15209961 21.57128906 C-85.98815674 21.54776367 -84.82421387 21.52423828 -83.625 21.5 C-60.27024219 20.78319749 -41.06263252 15.71194366 -20.75390625 4.15234375 C-13.89831812 0.38132453 -7.85990159 -1.74412802 0 0 Z " fill="#535553" transform="translate(720,798)"/>
<path d="M0 0 C4.20679049 1.68286394 8.10163104 3.87172355 12.0625 6.0625 C32.35889925 16.777439 51.38867454 21.34640351 74.21679688 20.78515625 C75.38404297 20.77097656 76.55128906 20.75679687 77.75390625 20.7421875 C78.80908447 20.7201123 79.8642627 20.69803711 80.95141602 20.67529297 C85.15730748 21.12326571 88.71590272 22.45152975 91.4609375 25.76171875 C93.84853855 30.79200642 94.71907866 34.42714041 94 40 C91.43433078 45.4520471 87.39872297 48.5652818 82 51 C65.69993118 56.31564388 45.10916604 54.39905779 29 49 C28.23397461 48.75330566 27.46794922 48.50661133 26.67871094 48.25244141 C9.93040539 42.78490839 -9.18873199 35.10944512 -18.22265625 18.90625 C-19.52580993 15.71057664 -19.56355476 13.38132855 -19 10 C-14.90456858 1.96665375 -8.9546686 -1.47072692 0 0 Z " fill="#535552" transform="translate(314,798)"/>
<path d="M0 0 C1.32 0.33 2.64 0.66 4 1 C-2.6 7.6 -9.2 14.2 -16 21 C-16.33 19.68 -16.66 18.36 -17 17 C-15.61645508 14.96948242 -15.61645508 14.96948242 -13.51953125 12.85546875 C-12.76736328 12.09685547 -12.01519531 11.33824219 -11.24023438 10.55664062 C-10.03850586 9.38391602 -10.03850586 9.38391602 -8.8125 8.1875 C-8.03068359 7.38634766 -7.24886719 6.58519531 -6.44335938 5.75976562 C-5.68474609 5.00759766 -4.92613281 4.25542969 -4.14453125 3.48046875 C-3.44690674 2.78848389 -2.74928223 2.09649902 -2.03051758 1.38354492 C-1.36044678 0.9269751 -0.69037598 0.47040527 0 0 Z " fill="#414341" transform="translate(214,189)"/>
<path d="M0 0 C1.24716797 0.01289062 2.49433594 0.02578125 3.77929688 0.0390625 C5.07287109 0.07257812 6.36644531 0.10609375 7.69921875 0.140625 C9.01212891 0.15867187 10.32503906 0.17671875 11.67773438 0.1953125 C14.91480363 0.24239714 18.15038928 0.30815458 21.38671875 0.390625 C21.38671875 0.720625 21.38671875 1.050625 21.38671875 1.390625 C13.13671875 1.390625 4.88671875 1.390625 -3.61328125 1.390625 C-3.61328125 2.050625 -3.61328125 2.710625 -3.61328125 3.390625 C-5.26399521 4.41674449 -6.93298131 5.41370643 -8.61328125 6.390625 C-10.3647729 7.97307775 -10.3647729 7.97307775 -11.61328125 9.390625 C-11.92578125 7.140625 -11.92578125 7.140625 -11.61328125 4.390625 C-7.85285774 0.55653607 -5.29130545 -0.09664485 0 0 Z " fill="#272727" transform="translate(630.61328125,819.609375)"/>
<path d="M0 0 C0.66 0.99 1.32 1.98 2 3 C1.67 3.99 1.34 4.98 1 6 C0.77337092 9.42821445 0.60621821 12.85011944 0.48242188 16.28320312 C0.21464014 21.78535986 0.21464014 21.78535986 -2 24 C-2.19676277 15.70316995 -2.25943749 8.04924606 0 0 Z " fill="#3B3D3C" transform="translate(361,363)"/>
<path d="M0 0 C0.33 0.66 0.66 1.32 1 2 C-1.96801895 9.60011548 -6.03355813 14.80952608 -13 19 C-11.33567602 15.2462258 -8.98440053 12.19222602 -6.5 8.9375 C-4.2572291 5.99204276 -2.05368788 3.08053182 0 0 Z " fill="#313131" transform="translate(453,821)"/>
<path d="M0 0 C5.39938881 0.07847949 8.77023314 1.64624927 13.375 4.375 C13.375 5.365 13.375 6.355 13.375 7.375 C11.395 6.385 9.415 5.395 7.375 4.375 C7.375 3.715 7.375 3.055 7.375 2.375 C2.755 2.375 -1.865 2.375 -6.625 2.375 C-4.17549379 -0.07450621 -3.37776979 0.05228746 0 0 Z " fill="#333432" transform="translate(209.625,543.625)"/>
<path d="M0 0 C1.875 0.25 1.875 0.25 4 1 C4.67061059 2.33135407 5.33672295 3.66497724 6 5 C7.50230283 6.68640869 7.50230283 6.68640869 9.2578125 8.234375 C9.88300781 8.80800781 10.50820312 9.38164062 11.15234375 9.97265625 C11.80332031 10.55917969 12.45429688 11.14570313 13.125 11.75 C13.78371094 12.35199219 14.44242188 12.95398438 15.12109375 13.57421875 C16.74268509 15.05480215 18.36902454 16.52977125 20 18 C16.41670305 18 16.0271436 17.44501518 13.49609375 15.078125 C12.83802734 14.46453125 12.17996094 13.8509375 11.50195312 13.21875 C10.82068359 12.5690625 10.13941406 11.919375 9.4375 11.25 C8.40979492 10.29867188 8.40979492 10.29867188 7.36132812 9.328125 C4.2219088 6.37047775 1.76519106 3.9901071 0 0 Z " fill="#323332" transform="translate(227,484)"/>
<path d="M0 0 C0.66 0.33 1.32 0.66 2 1 C-0.19177814 4.40864198 -1.95433376 5.70101102 -5.75 7.0625 C-8.87781659 8.21317121 -11.92041545 9.39723646 -14.9375 10.8125 C-18 12 -18 12 -21 11 C-19.98679687 10.54109375 -18.97359375 10.0821875 -17.9296875 9.609375 C-16.57800168 8.98985233 -15.22644608 8.37004548 -13.875 7.75 C-13.20984375 7.44964844 -12.5446875 7.14929688 -11.859375 6.83984375 C-7.61529673 4.88423906 -3.82201336 2.69088791 0 0 Z " fill="#2B2C2B" transform="translate(884,602)"/>
<path d="M0 0 C0.598125 0.226875 1.19625 0.45375 1.8125 0.6875 C1.090625 1.38875 0.36875 2.09 -0.375 2.8125 C-3.18573813 5.61520745 -5.68266226 8.61012792 -8.1875 11.6875 C-8.5175 10.6975 -8.8475 9.7075 -9.1875 8.6875 C-3.80288462 -0.54326923 -3.80288462 -0.54326923 0 0 Z " fill="#3A3B3A" transform="translate(721.1875,616.3125)"/>
<path d="M0 0 C2.26917113 2.57860356 3.08219599 4.30309773 4 7.6875 C4.33 8.780625 4.66 9.87375 5 11 C5.99 11.33 6.98 11.66 8 12 C8.12375 12.86625 8.2475 13.7325 8.375 14.625 C8.98058121 17.89513853 9.88306035 20.87256899 11 24 C8.59423504 21.82235686 7.27068808 19.83296423 5.95703125 16.875 C5.60576172 16.08609375 5.25449219 15.2971875 4.89257812 14.484375 C4.53615234 13.66453125 4.17972656 12.8446875 3.8125 12 C3.44447266 11.18015625 3.07644531 10.3603125 2.69726562 9.515625 C0 3.39048006 0 3.39048006 0 0 Z " fill="#2A2A2A" transform="translate(76,571)"/>
<path d="M0 0 C0.33 0 0.66 0 1 0 C1.25408976 3.79043181 1.47403593 7.58208053 1.6875 11.375 C1.76033203 12.45523438 1.83316406 13.53546875 1.90820312 14.6484375 C1.96298828 15.6796875 2.01777344 16.7109375 2.07421875 17.7734375 C2.13182373 18.72653809 2.18942871 19.67963867 2.2487793 20.66162109 C2.16668213 21.43328613 2.08458496 22.20495117 2 23 C1.01 23.66 0.02 24.32 -1 25 C-1.15392039 16.61988971 -0.68271293 8.35104207 0 0 Z " fill="#60615F" transform="translate(929,618)"/>
<path d="M0 0 C0.33 0 0.66 0 1 0 C1.33 8.58 1.66 17.16 2 26 C-1.375 21.5 -1.375 21.5 -1.07421875 16.796875 C-1.01943359 15.8171875 -0.96464844 14.8375 -0.90820312 13.828125 C-0.79895508 12.30445313 -0.79895508 12.30445313 -0.6875 10.75 C-0.62626953 9.71875 -0.56503906 8.6875 -0.50195312 7.625 C-0.3489076 5.08208972 -0.18109518 2.54104136 0 0 Z " fill="#222423" transform="translate(123,394)"/>
<path d="M0 0 C-2.01941674 4.88025712 -5.36020466 6.82509593 -10 9 C-11.334313 9.66470372 -12.6677787 10.33111389 -14 11 C-5.00842697 0 -5.00842697 0 0 0 Z " fill="#3A3A3A" transform="translate(340,252)"/>
<path d="M0 0 C1 3 1 3 0.4375 4.875 C-1.60330925 7.89184845 -4.13372233 9.75682617 -7 12 C-7 8.19654123 -5.86213669 7.22298985 -3.5 4.3125 C-2.8503125 3.50425781 -2.200625 2.69601562 -1.53125 1.86328125 C-1.0259375 1.24839844 -0.520625 0.63351562 0 0 Z " fill="#3C3D3C" transform="translate(313,276)"/>
<path d="M0 0 C0.99 0.33 1.98 0.66 3 1 C1.88625 1.680625 0.7725 2.36125 -0.375 3.0625 C-4.2718112 5.80673324 -5.02975001 8.32515912 -6 13 C-6.66 13.66 -7.32 14.32 -8 15 C-8.50537432 9.69356959 -7.30655751 7.13319688 -4 3 C-1.9375 1.0625 -1.9375 1.0625 0 0 Z " fill="#2F2F2E" transform="translate(303,799)"/>
<path d="M0 0 C0.33 1.32 0.66 2.64 1 4 C1.66 4 2.32 4 3 4 C3.25 9.625 3.25 9.625 1 13 C0.60612212 15.32387947 0.26513915 17.65793749 0 20 C-0.33 20 -0.66 20 -1 20 C-0.67 13.4 -0.34 6.8 0 0 Z " fill="#616260" transform="translate(743,390)"/>
<path d="M0 0 C-1.50223584 4.20626034 -4.28550034 5.73900021 -8 8 C-8 5 -8 5 -5.6875 2.3125 C-3 0 -3 0 0 0 Z " fill="#3B3C3B" transform="translate(139,287)"/>
<path d="M0 0 C1.32 0.33 2.64 0.66 4 1 C1.69 3.31 -0.62 5.62 -3 8 C-3.33 6.68 -3.66 5.36 -4 4 C-2.3125 1.6875 -2.3125 1.6875 0 0 Z " fill="#4D4E4C" transform="translate(324,263)"/>
<path d="M0 0 C1.875 0.25 1.875 0.25 4 1 C4.68486725 2.32407669 5.34870203 3.65909241 6 5 C7.00435972 6.28016835 8.04690261 7.53128122 9.125 8.75 C9.66382813 9.36359375 10.20265625 9.9771875 10.7578125 10.609375 C11.16773438 11.06828125 11.57765625 11.5271875 12 12 C8.35865951 10.49917723 6.31243814 8.39379438 3.75 5.4375 C3.04359375 4.63183594 2.3371875 3.82617188 1.609375 2.99609375 C0 1 0 1 0 0 Z " fill="#373736" transform="translate(226,715)"/>
<path d="M0 0 C0.66 0.33 1.32 0.66 2 1 C-0.31 3.64 -2.62 6.28 -5 9 C-5.99 8.67 -6.98 8.34 -8 8 C-5.33333333 5.33333333 -2.66666667 2.66666667 0 0 Z " fill="#393A3A" transform="translate(229,311)"/>
<path d="M0 0 C0.66 0 1.32 0 2 0 C1.75 1.875 1.75 1.875 1 4 C-0.31647119 4.69937532 -1.65022151 5.36729133 -3 6 C-3.33 6.99 -3.66 7.98 -4 9 C-4.33 8.01 -4.66 7.02 -5 6 C-2.6875 2.8125 -2.6875 2.8125 0 0 Z " fill="#3D3E3D" transform="translate(453,260)"/>
<path d="M0 0 C-0.33 3.96 -0.66 7.92 -1 12 C-1.33 12 -1.66 12 -2 12 C-2 8.7 -2 5.4 -2 2 C-3.32 2.33 -4.64 2.66 -6 3 C-3.375 0 -3.375 0 0 0 Z " fill="#323331" transform="translate(896,634)"/>
<path d="M0 0 C3.65882521 3.3621637 6.14420341 6.36050852 8 11 C7.67 11.66 7.34 12.32 7 13 C2.9455332 9.71781259 1.60029003 4.80087009 0 0 Z " fill="#2B2C2A" transform="translate(650,337)"/>
<path d="M0 0 C0.66 0 1.32 0 2 0 C1.43628586 3.26954202 0.50037734 4.82575883 -2 7 C-2.99 6.67 -3.98 6.34 -5 6 C-3.625 4 -3.625 4 -2 2 C-1.34 2 -0.68 2 0 2 C0 1.34 0 0.68 0 0 Z " fill="#4D4E4D" transform="translate(462,863)"/>
<path d="M0 0 C0.33 0 0.66 0 1 0 C1 3.96 1 7.92 1 12 C0.67 11.01 0.34 10.02 0 9 C-0.66 9 -1.32 9 -2 9 C-2.125 5.625 -2.125 5.625 -2 2 C-1.34 1.34 -0.68 0.68 0 0 Z " fill="#606260" transform="translate(280,359)"/>
<path d="M0 0 C0.66 0.33 1.32 0.66 2 1 C1.21625 1.598125 0.4325 2.19625 -0.375 2.8125 C-3.14574323 4.91085249 -3.14574323 4.91085249 -5 8 C-6.32 7.67 -7.64 7.34 -9 7 C-6.03 4.69 -3.06 2.38 0 0 Z " fill="#2C2D2C" transform="translate(759,834)"/>
<path d="M0 0 C0 4.61538462 0 4.61538462 -1 7 C-3.5625 8.25 -3.5625 8.25 -6 9 C-4.68775452 5.06326356 -3.08089673 2.77280706 0 0 Z " fill="#343534" transform="translate(552,159)"/>
<path d="M0 0 C2.97069541 2.54631035 4.4775751 5.42230149 6 9 C5.67 9.66 5.34 10.32 5 11 C1.19015156 8.22920113 0.93159248 4.37131855 0 0 Z " fill="#2C2D2C" transform="translate(721,290)"/>
<path d="M0 0 C3.73884332 2.65654657 5.64978174 4.58110387 7 9 C3.46352496 7.32482761 2.2088437 6.50719183 0.6875 2.8125 C0.460625 1.884375 0.23375 0.95625 0 0 Z " fill="#313231" transform="translate(712,278)"/>
<path d="M0 0 C3.375 -0.125 3.375 -0.125 7 0 C7.66 0.66 8.32 1.32 9 2 C8 3 8 3 5.93359375 3.09765625 C5.10988281 3.08605469 4.28617187 3.07445313 3.4375 3.0625 C2.61121094 3.05347656 1.78492188 3.04445313 0.93359375 3.03515625 C0.29550781 3.02355469 -0.34257812 3.01195313 -1 3 C-0.67 2.01 -0.34 1.02 0 0 Z " fill="#626462" transform="translate(373,121)"/>
<path d="M0 0 C-1.32 0.33 -2.64 0.66 -4 1 C-4 1.66 -4 2.32 -4 3 C-6.31 3.33 -8.62 3.66 -11 4 C-7.84441727 0.34616736 -4.73375145 -1.57791715 0 0 Z " fill="#2C2E2D" transform="translate(279,153)"/>
<path d="M0 0 C0.66 0.33 1.32 0.66 2 1 C-1.07999946 4.67230705 -3.2482602 5.56802365 -8 6 C-5.63404067 3.38499232 -3.13950774 1.61000397 0 0 Z " fill="#2C2D2C" transform="translate(748,842)"/>
<path d="M0 0 C0.33 0.66 0.66 1.32 1 2 C-0.65 4.31 -2.3 6.62 -4 9 C-4 5.76138705 -3.3749149 3.90259811 -2 1 C-1.34 0.67 -0.68 0.34 0 0 Z " fill="#313230" transform="translate(802,706)"/>
<path d="M0 0 C0.99 0.33 1.98 0.66 3 1 C3.80688405 4.94476647 4.00000429 6.99998285 3 11 C2.01 7.37 1.02 3.74 0 0 Z " fill="#2E2E2D" transform="translate(917,476)"/>
<path d="M0 0 C0.33 0.99 0.66 1.98 1 3 C-0.65 4.32 -2.3 5.64 -4 7 C-3.6875 4.625 -3.6875 4.625 -3 2 C-2.01 1.34 -1.02 0.68 0 0 Z " fill="#474947" transform="translate(782,454)"/>
<path d="M0 0 C0.66 0.33 1.32 0.66 2 1 C-1.465 3.97 -1.465 3.97 -5 7 C-5.33 6.01 -5.66 5.02 -6 4 C-4.02 2.68 -2.04 1.36 0 0 Z " fill="#373837" transform="translate(174,298)"/>
<path d="M0 0 C0.99 0.495 0.99 0.495 2 1 C2 1.66 2 2.32 2 3 C2.99 3.33 3.98 3.66 5 4 C5 6.31 5 8.62 5 11 C2.77174356 8.77174356 2.30760631 7.34238372 1.375 4.375 C1.11460937 3.55773437 0.85421875 2.74046875 0.5859375 1.8984375 C0.39257812 1.27195313 0.19921875 0.64546875 0 0 Z " fill="#272726" transform="translate(707,196)"/>
<path d="M0 0 C1.485 0.99 1.485 0.99 3 2 C3.1875 5.125 3.1875 5.125 3 8 C2.01 8 1.02 8 0 8 C0 5.36 0 2.72 0 0 Z " fill="#5F615F" transform="translate(956,502)"/>
<path d="M0 0 C1.32 0.33 2.64 0.66 4 1 C2.35 2.32 0.7 3.64 -1 5 C-1.66 4.67 -2.32 4.34 -3 4 C-2.01 2.68 -1.02 1.36 0 0 Z " fill="#484948" transform="translate(759,476)"/>
</svg>
